<svg width="467" height="348" viewBox="0 0 467 348" fill="none" xmlns="http://www.w3.org/2000/svg">
    <path d="M467 305.817H0V306.051H467V305.817Z" fill="#E0E0E0" />
    <path d="M112.93 316.55H100.601V316.783H112.93V316.55Z" fill="#E0E0E0" />
    <path d="M93.7548 316.662H75.0562V316.895H93.7548V316.662Z" fill="#E0E0E0" />
    <path d="M204.537 315.092H155.978V315.326H204.537V315.092Z" fill="#E0E0E0" />
    <path d="M223.226 312.57H197.167V312.804H223.226V312.57Z" fill="#E0E0E0" />
    <path d="M374.001 319.959H313.198V320.193H374.001V319.959Z" fill="#E0E0E0" />
    <path d="M308.014 319.959H293.052V320.193H308.014V319.959Z" fill="#E0E0E0" />
    <path d="M391.037 314.317H364.297V314.55H391.037V314.317Z" fill="#E0E0E0" />
    <path
        d="M221.358 264.157H41.0118C39.599 264.155 38.2449 263.592 37.2467 262.592C36.2486 261.592 35.688 260.237 35.688 258.824V5.28688C35.7003 3.88205 36.2663 2.5388 37.2631 1.5489C38.2599 0.559006 39.607 0.00240655 41.0118 0H221.358C222.772 0 224.129 0.56193 225.129 1.56217C226.129 2.56241 226.691 3.91903 226.691 5.33358V258.824C226.691 260.238 226.129 261.595 225.129 262.595C224.129 263.595 222.772 264.157 221.358 264.157ZM41.0118 0.186816C39.6609 0.189291 38.3662 0.727707 37.4118 1.68389C36.4575 2.64007 35.9215 3.93588 35.9215 5.28688V258.824C35.9215 260.175 36.4575 261.47 37.4118 262.427C38.3662 263.383 39.6609 263.921 41.0118 263.924H221.358C222.71 263.921 224.005 263.383 224.961 262.427C225.917 261.471 226.455 260.175 226.458 258.824V5.28688C226.455 3.93502 225.917 2.63923 224.961 1.68332C224.005 0.727404 222.71 0.189285 221.358 0.186816H41.0118Z"
        fill="#E0E0E0" />
    <path
        d="M423.391 264.157H243.036C241.622 264.155 240.267 263.592 239.267 262.592C238.268 261.593 237.705 260.237 237.703 258.824V5.28688C237.717 3.8812 238.285 2.53796 239.284 1.54832C240.282 0.55868 241.63 0.0023803 243.036 0H423.391C424.794 0.0048614 426.139 0.562548 427.134 1.55218C428.129 2.54182 428.693 3.88366 428.706 5.28688V258.824C428.706 260.235 428.146 261.589 427.15 262.588C426.154 263.588 424.802 264.152 423.391 264.157ZM243.036 0.186816C241.684 0.189285 240.388 0.727404 239.433 1.68332C238.477 2.63923 237.939 3.93502 237.936 5.28688V258.824C237.939 260.175 238.477 261.471 239.433 262.427C240.388 263.383 241.684 263.921 243.036 263.924H423.391C424.743 263.921 426.039 263.383 426.994 262.427C427.95 261.471 428.488 260.175 428.491 258.824V5.28688C428.488 3.93502 427.95 2.63923 426.994 1.68332C426.039 0.727404 424.743 0.189285 423.391 0.186816H243.036Z"
        fill="#E0E0E0" />
    <path d="M58.712 305.817H84.397L84.397 207.683H58.712L58.712 305.817Z" fill="#E0E0E0" />
    <path d="M63.5962 305.817H58.7207V291.937H68.7145L63.5962 305.817Z" fill="#EBEBEB" />
    <path d="M205.284 305.817H230.969V207.683H205.284V305.817Z" fill="#E0E0E0" />
    <path d="M58.7113 297.298H209.534V207.683H58.7113V297.298Z" fill="#EBEBEB" />
    <path d="M159.817 212.222V279.943H204.527V212.222H159.817Z" fill="#E0E0E0" />
    <path
        d="M177.749 216.108H186.594C188.495 216.109 190.377 215.722 192.124 214.972C193.871 214.222 195.447 213.125 196.756 211.746H167.587C168.897 213.125 170.473 214.222 172.22 214.972C173.967 215.722 175.848 216.109 177.749 216.108Z"
        fill="#EBEBEB" />
    <path d="M111.772 212.222V279.943H156.483V212.222H111.772Z" fill="#E0E0E0" />
    <path
        d="M129.256 216.108H138.101C140.001 216.107 141.88 215.72 143.626 214.97C145.371 214.22 146.946 213.123 148.254 211.746H119.094C120.403 213.125 121.98 214.222 123.727 214.972C125.474 215.722 127.355 216.109 129.256 216.108Z"
        fill="#EBEBEB" />
    <path d="M63.7271 212.232L63.7271 279.952H108.438V212.232H63.7271Z" fill="#E0E0E0" />
    <path
        d="M81.2579 216.108H90.1029C92.0041 216.109 93.8854 215.722 95.6324 214.972C97.3795 214.222 98.9556 213.125 100.265 211.746H71.0493C72.364 213.13 73.9477 214.231 75.7032 214.981C77.4587 215.731 79.3489 216.115 81.2579 216.108Z"
        fill="#EBEBEB" />
    <path d="M204.668 305.817H209.544V291.937H199.55L204.668 305.817Z" fill="#EBEBEB" />
    <path d="M265.592 150.284L407.093 150.284V17.7383L265.592 17.7383V150.284Z" fill="#E0E0E0" />
    <path d="M260.511 150.284L404.72 150.284V17.7383L260.511 17.7383V150.284Z" fill="#EBEBEB" />
    <path d="M265.592 159.718L407.093 159.718V150.274L265.592 150.274V159.718Z" fill="#E0E0E0" />
    <path d="M252.049 159.718L396.259 159.718V150.274L252.049 150.274V159.718Z" fill="#EBEBEB" />
    <path d="M397.613 143.166V24.856L267.628 24.856V143.166H397.613Z" fill="#F5F5F5" />
    <path d="M383.996 143.166L342.237 24.856H322.529L364.288 143.166H383.996Z" fill="#FAFAFA" />
    <path
        d="M394.316 103.029C394.18 103.029 394.049 102.975 393.953 102.878C393.856 102.782 393.802 102.651 393.802 102.515V29.4796C393.805 29.3449 393.86 29.2166 393.956 29.1223C394.052 29.028 394.181 28.9751 394.316 28.9752C394.45 28.9752 394.578 29.0283 394.673 29.1229C394.767 29.2175 394.82 29.3458 394.82 29.4796V102.515C394.82 102.65 394.768 102.779 394.673 102.875C394.579 102.971 394.451 103.026 394.316 103.029Z"
        fill="#EBEBEB" />
    <path d="M360.048 143.166L318.289 24.856H310.611L352.361 143.166H360.048Z" fill="#FAFAFA" />
    <path d="M268.524 143.166V24.856H267.618V143.166H268.524Z" fill="#E0E0E0" />
    <path d="M258.83 33.9537H400.331L400.985 27.6206H259.484L258.83 33.9537Z" fill="#E0E0E0" />
    <path d="M258.83 38.5959H400.331L400.985 32.2535H259.484L258.83 38.5959Z" fill="#E0E0E0" />
    <path d="M258.83 44.1629H400.331L400.985 37.8205H259.484L258.83 44.1629Z" fill="#E0E0E0" />
    <path d="M258.83 50.3562H400.331L400.985 44.0231H259.484L258.83 50.3562Z" fill="#E0E0E0" />
    <path d="M258.83 57.7821H400.331L400.985 51.4398H259.484L258.83 57.7821Z" fill="#E0E0E0" />
    <path d="M258.83 66.1233H400.331L400.985 59.7903H259.484L258.83 66.1233Z" fill="#E0E0E0" />
    <path d="M257.317 305.817H299.198V217.827H257.317V305.817Z" fill="#E0E0E0" />
    <path d="M261.52 305.817H257.317V293.833H265.938L261.52 305.817Z" fill="#EBEBEB" />
    <path d="M360.337 305.817H402.218V217.827H360.337V305.817Z" fill="#E0E0E0" />
    <path d="M257.317 298.466H364.008V217.827H257.317V298.466Z" fill="#EBEBEB" />
    <path d="M260.577 243.514H360.739V221.395H260.577V243.514Z" fill="#E0E0E0" />
    <path
        d="M305.932 228.27H315.393C319.503 228.27 323.426 225.542 326.256 220.722H295.06C297.89 225.542 301.822 228.27 305.932 228.27Z"
        fill="#EBEBEB" />
    <path d="M359.795 305.817H364.008V293.833H355.377L359.795 305.817Z" fill="#EBEBEB" />
    <path d="M260.577 269.201H360.739V247.082H260.577V269.201Z" fill="#E0E0E0" />
    <path
        d="M305.932 253.957H315.393C319.503 253.957 323.426 251.23 326.256 246.41H295.06C297.89 251.267 301.822 253.957 305.932 253.957Z"
        fill="#EBEBEB" />
    <path d="M260.577 294.889H360.739V272.77H260.577V294.889Z" fill="#E0E0E0" />
    <path
        d="M305.932 279.644H315.393C319.503 279.644 323.426 276.917 326.256 272.097H295.06C297.89 276.917 301.822 279.644 305.932 279.644Z"
        fill="#EBEBEB" />
    <path d="M88.5805 144.689H169.895V35.9248L88.5805 35.9248L88.5805 144.689Z" fill="#E0E0E0" />
    <path d="M82.9301 144.689H168.391V35.9248L82.9301 35.9248L82.9301 144.689Z" fill="#EBEBEB" />
    <path d="M161.237 137.533V43.0886L90.094 43.0886V137.533H161.237Z" fill="#FAFAFA" />
    <path
        d="M126.819 108.353H108.344C108.161 108.353 107.985 108.28 107.855 108.151C107.726 108.021 107.653 107.845 107.653 107.662V89.1578C107.668 84.7032 109.444 80.4352 112.593 77.2853C115.743 74.1353 120.011 72.3592 124.465 72.3444H142.93C143.021 72.3444 143.111 72.3623 143.195 72.397C143.278 72.4318 143.355 72.4827 143.419 72.5469C143.483 72.6111 143.534 72.6873 143.569 72.7711C143.603 72.855 143.621 72.9449 143.621 73.0356V91.5024C143.616 95.9619 141.846 100.238 138.697 103.396C135.548 106.553 131.278 108.336 126.819 108.353ZM109.073 106.98H126.819C130.921 106.975 134.853 105.343 137.753 102.441C140.653 99.5389 142.283 95.6049 142.286 91.5024V73.7549H124.54C120.438 73.7598 116.506 75.3908 113.605 78.2903C110.704 81.1899 109.071 85.1214 109.063 89.2232L109.073 106.98Z"
        fill="#EBEBEB" />
    <path d="M199.876 164.089H129.929L119.786 205.404H189.733L199.876 164.089Z" fill="#E0E0E0" />
    <path d="M189.733 205.404L189.453 207.683H119.506L119.786 205.404H189.733Z" fill="#E0E0E0" />
    <path d="M197.718 164.089H127.771L117.637 205.404H187.584L197.718 164.089Z" fill="#F0F0F0" />
    <path d="M186.099 203.517L195.318 165.976H129.256L120.038 203.517H186.099Z" fill="#FAFAFA" />
    <path d="M169.353 205.404L169.073 207.683H92.0459L92.3354 205.404H169.353Z" fill="#F0F0F0" />
    <path
        d="M356.714 210.578H355.602C355.602 208.28 355.602 202.452 355.49 189.094C355.285 164.883 354.902 163.407 354.902 163.407L357.554 174.616C359.245 186.965 357.069 199.397 356.714 210.578Z"
        fill="#E0E0E0" />
    <path
        d="M361.664 170.45C367.51 164.668 378.915 163.912 390.571 163.417C395.148 163.22 377.794 172.01 369.089 178.595C362.336 183.705 358.208 184.91 355.966 190.43C355.751 183.266 356.629 175.429 361.664 170.45Z"
        fill="#E0E0E0" />
    <path
        d="M355.237 157.859C351.277 150.34 341.311 143.25 330.131 140.56C325.741 139.505 340.303 154.459 345.832 164.099C350.138 171.572 355.835 180.389 356.722 186.713C358.058 174.206 359.197 165.407 355.237 157.859Z"
        fill="#E0E0E0" />
    <path
        d="M355.752 217.818C357.627 217.818 359.43 217.102 360.794 215.815C362.157 214.528 362.976 212.768 363.084 210.896L363.728 204.255H347.766L348.42 210.896C348.527 212.768 349.347 214.528 350.71 215.815C352.073 217.102 353.877 217.818 355.752 217.818Z"
        fill="#EBEBEB" />
    <path d="M346.738 206.814H364.765L365.278 199.416H346.215L346.738 206.814Z" fill="#EBEBEB" />
    <path
        d="M233.5 348C333.515 348 414.593 343.266 414.593 337.426C414.593 331.586 333.515 326.852 233.5 326.852C133.485 326.852 52.4067 331.586 52.4067 337.426C52.4067 343.266 133.485 348 233.5 348Z"
        fill="#F5F5F5" />
    <path d="M134.589 137.636H89.729V337.258H134.589V137.636Z" fill="#90CAF9" />
    <path opacity="0.7" d="M134.589 137.636H89.729V337.258H134.589V137.636Z" fill="#FAFAFA" />
    <path d="M203.219 71.6529H158.359V337.249H203.219V71.6529Z" fill="#90CAF9" />
    <path opacity="0.1" d="M203.219 71.6529H158.359V337.249H203.219V71.6529Z" fill="black" />
    <path d="M271.86 137.636H227V337.258H271.86V137.636Z" fill="#90CAF9" />
    <path opacity="0.4" d="M271.86 137.636H227V337.258H271.86V137.636Z" fill="black" />
    <path d="M118.674 137.636H73.814V337.258H118.674V137.636Z" fill="#90CAF9" />
    <path opacity="0.8" d="M118.674 137.636H73.814V337.258H118.674V137.636Z" fill="#FAFAFA" />
    <path d="M187.314 71.6529H142.454V337.249H187.314V71.6529Z" fill="#90CAF9" />
    <path opacity="0.2" d="M187.314 71.6529H142.454V337.249H187.314V71.6529Z" fill="#FAFAFA" />
    <path d="M255.944 137.636H211.083V337.258H255.944V137.636Z" fill="#90CAF9" />
    <path opacity="0.2" d="M255.944 137.636H211.083V337.258H255.944V137.636Z" fill="black" />
    <path
        d="M423.737 245.662H422.803C422.78 228.443 418.038 211.56 409.092 196.847L409.895 196.362C418.925 211.222 423.713 228.273 423.737 245.662ZM403.899 189.206C401.263 185.72 398.386 182.424 395.287 179.343L395.95 178.689C399.083 181.809 401.989 185.149 404.646 188.683L403.899 189.206Z"
        fill="#90CAF9" />
    <path opacity="0.3"
        d="M423.737 245.662H422.803C422.78 228.443 418.038 211.56 409.092 196.847L409.895 196.362C418.925 211.222 423.713 228.273 423.737 245.662ZM403.899 189.206C401.263 185.72 398.386 182.424 395.287 179.343L395.95 178.689C399.083 181.809 401.989 185.149 404.646 188.683L403.899 189.206Z"
        fill="black" />
    <path
        d="M393.644 180.949C376.472 163.782 353.188 154.134 328.908 154.123H315.692V155.103C304.233 156.776 293.194 160.604 283.161 166.387C239.655 191.486 224.515 247.951 249.611 291.432C256.523 303.413 266.06 313.671 277.505 321.436C288.95 329.202 302.006 334.273 315.692 336.268V337.202H328.927C347.038 337.21 364.744 331.846 379.805 321.787C394.866 311.728 406.605 297.426 413.535 280.693C420.466 263.959 422.277 245.545 418.74 227.782C415.202 210.018 406.475 193.704 393.662 180.903L393.644 180.949ZM328.908 313.364C315.523 313.366 302.438 309.398 291.308 301.963C280.177 294.528 271.501 283.959 266.377 271.593C261.253 259.227 259.91 245.618 262.519 232.489C265.128 219.36 271.571 207.299 281.033 197.831C290.496 188.364 302.553 181.916 315.68 179.301C328.808 176.687 342.415 178.024 354.783 183.143C367.15 188.263 377.722 196.935 385.161 208.063C392.6 219.192 396.573 232.276 396.576 245.662C396.6 254.557 394.866 263.369 391.474 271.592C388.082 279.814 383.098 287.286 376.811 293.577C370.523 299.868 363.054 304.855 354.833 308.25C346.613 311.646 337.802 313.384 328.908 313.364Z"
        fill="#90CAF9" />
    <path opacity="0.3"
        d="M393.644 180.949C376.472 163.782 353.188 154.134 328.908 154.123H315.692V155.103C304.233 156.776 293.194 160.604 283.161 166.387C239.655 191.486 224.515 247.951 249.611 291.432C256.523 303.413 266.06 313.671 277.505 321.436C288.95 329.202 302.006 334.273 315.692 336.268V337.202H328.927C347.038 337.21 364.744 331.846 379.805 321.787C394.866 311.728 406.605 297.426 413.535 280.693C420.466 263.959 422.277 245.545 418.74 227.782C415.202 210.018 406.475 193.704 393.662 180.903L393.644 180.949ZM328.908 313.364C315.523 313.366 302.438 309.398 291.308 301.963C280.177 294.528 271.501 283.959 266.377 271.593C261.253 259.227 259.91 245.618 262.519 232.489C265.128 219.36 271.571 207.299 281.033 197.831C290.496 188.364 302.553 181.916 315.68 179.301C328.808 176.687 342.415 178.024 354.783 183.143C367.15 188.263 377.722 196.935 385.161 208.063C392.6 219.192 396.573 232.276 396.576 245.662C396.6 254.557 394.866 263.369 391.474 271.592C388.082 279.814 383.098 287.286 376.811 293.577C370.523 299.868 363.054 304.855 354.833 308.25C346.613 311.646 337.802 313.384 328.908 313.364Z"
        fill="black" />
    <path
        d="M383.341 245.662H407.224C407.241 265.828 400.6 285.435 388.332 301.439C376.063 317.442 358.853 328.946 339.376 334.164C319.899 339.382 299.243 338.022 280.618 330.295C261.993 322.568 246.441 308.906 236.376 291.432L257.074 279.485C264.517 292.391 276.012 302.479 289.774 308.184C303.537 313.89 318.797 314.893 333.187 311.038C347.578 307.183 360.294 298.686 369.362 286.865C378.431 275.045 383.345 260.561 383.341 245.662Z"
        fill="#90CAF9" />
    <path opacity="0.2"
        d="M383.341 245.662H407.224C407.241 265.828 400.6 285.435 388.332 301.439C376.063 317.442 358.853 328.946 339.376 334.164C319.899 339.382 299.243 338.022 280.618 330.295C261.993 322.568 246.441 308.906 236.376 291.432L257.074 279.485C264.517 292.391 276.012 302.479 289.774 308.184C303.537 313.89 318.797 314.893 333.187 311.038C347.578 307.183 360.294 298.686 369.362 286.865C378.431 275.045 383.345 260.561 383.341 245.662Z"
        fill="#FAFAFA" />
    <path
        d="M315.692 154.123C339.964 154.137 363.237 163.786 380.399 180.95C397.561 198.114 407.21 221.389 407.224 245.662H383.342C383.332 227.722 376.202 210.519 363.517 197.834C350.832 185.148 333.631 178.017 315.692 178.007V154.123Z"
        fill="#90CAF9" />
    <path
        d="M315.692 154.123V178.007C303.814 178.003 292.144 181.127 281.856 187.065C271.569 193.003 263.025 201.545 257.086 211.832C251.147 222.12 248.02 233.79 248.021 245.669C248.023 257.548 251.151 269.218 257.093 279.504L236.377 291.432C211.28 247.932 226.411 191.486 269.907 166.368C283.832 158.343 299.621 154.12 315.692 154.123Z"
        fill="#90CAF9" />
    <path opacity="0.8"
        d="M315.692 154.123V178.007C303.814 178.003 292.144 181.127 281.856 187.065C271.569 193.003 263.025 201.545 257.086 211.832C251.147 222.12 248.02 233.79 248.021 245.669C248.023 257.548 251.151 269.218 257.093 279.504L236.377 291.432C211.28 247.932 226.411 191.486 269.907 166.368C283.832 158.343 299.621 154.12 315.692 154.123Z"
        fill="#FAFAFA" />
    <path d="M293.248 218.041L285.907 222.338L274.839 206.001L282.181 201.704L293.248 218.041Z" fill="#E4897B" />
    <path
        d="M281.825 217.696L289.876 212.568C290.013 212.476 290.179 212.437 290.343 212.459C290.507 212.482 290.656 212.564 290.763 212.689L295.742 218.481C295.861 218.631 295.947 218.805 295.995 218.99C296.042 219.176 296.051 219.37 296.019 219.559C295.987 219.748 295.916 219.929 295.811 220.089C295.705 220.249 295.567 220.385 295.405 220.489C292.603 222.226 291.109 222.927 287.569 225.159C285.384 226.542 281.031 229.643 278.014 231.567C274.997 233.491 272.952 230.633 274.035 229.54C278.883 224.748 280.032 221.675 280.91 218.873C281.072 218.388 281.395 217.972 281.825 217.696Z"
        fill="#263238" />
    <path
        d="M278.136 221.292H277.921C277.75 221.262 277.588 221.191 277.45 221.086C277.312 220.98 277.201 220.843 277.127 220.685C277.077 220.597 277.05 220.497 277.05 220.396C277.05 220.294 277.077 220.194 277.127 220.106C277.688 219.088 281.443 218.733 281.872 218.696C281.902 218.692 281.931 218.698 281.957 218.713C281.982 218.728 282.002 218.752 282.012 218.78C282.03 218.802 282.039 218.83 282.039 218.859C282.039 218.888 282.03 218.916 282.012 218.938C281.041 219.835 279.332 221.292 278.136 221.292ZM281.48 219.013C280.172 219.163 277.744 219.564 277.38 220.237C277.352 220.283 277.337 220.337 277.337 220.391C277.337 220.445 277.352 220.498 277.38 220.545C277.432 220.663 277.513 220.766 277.616 220.845C277.719 220.923 277.84 220.974 277.968 220.993C278.687 221.115 279.985 220.377 281.48 219.013Z"
        fill="#90CAF9" />
    <path
        d="M281.405 219.004C280.163 219.004 278.136 218.555 277.809 217.799C277.725 217.603 277.706 217.304 278.117 216.986C278.267 216.863 278.441 216.773 278.627 216.722C278.814 216.67 279.009 216.658 279.201 216.687C280.555 216.865 281.937 218.667 282.003 218.742C282.016 218.763 282.023 218.787 282.023 218.812C282.023 218.837 282.016 218.861 282.003 218.882C281.996 218.905 281.982 218.925 281.964 218.94C281.946 218.955 281.923 218.964 281.9 218.966C281.736 218.993 281.571 219.006 281.405 219.004ZM278.995 216.958C278.739 216.958 278.491 217.047 278.295 217.21C277.968 217.463 278.043 217.631 278.071 217.687C278.323 218.275 280.378 218.789 281.61 218.714C280.996 217.891 280.141 217.281 279.163 216.967L278.995 216.958Z"
        fill="#90CAF9" />
    <path
        d="M313.46 91.0725C313.32 91.8104 313.208 92.3335 313.068 92.9406L312.629 94.6687C312.32 95.8176 311.993 96.9385 311.695 98.0594C310.985 100.292 310.2 102.478 309.369 104.598C308.538 106.718 307.622 108.895 306.679 110.996C306.212 112.052 305.745 113.089 305.203 114.126L304.82 114.91L304.606 115.34C304.503 115.555 304.391 115.769 304.269 115.975C303.817 116.745 303.267 117.455 302.635 118.086C301.538 119.155 300.276 120.041 298.899 120.711C297.696 121.3 296.447 121.787 295.163 122.168C292.81 122.851 290.399 123.32 287.962 123.569C283.304 124.053 278.609 124.053 273.952 123.569L274.026 119.179C276.156 118.945 278.379 118.702 280.564 118.338C282.75 117.974 284.851 117.61 286.925 117.124C288.933 116.659 290.901 116.034 292.809 115.256C294.373 114.713 295.792 113.818 296.956 112.64C297.107 112.464 297.23 112.266 297.32 112.052L297.797 110.828C298.208 109.81 298.591 108.783 298.974 107.755C299.758 105.709 300.468 103.636 301.187 101.581C301.906 99.5259 302.56 97.4429 303.158 95.3692C303.475 94.3324 303.774 93.3049 304.092 92.2774L304.493 90.7362L304.839 89.3164L313.46 91.0725Z"
        fill="#E4897B" />
    <path
        d="M307.529 80.1533C304.026 81.0873 301.57 95.4628 301.57 95.4628L311.227 102.001C311.227 102.001 320.483 87.4577 317.765 83.6093C314.982 79.6208 312.638 78.8549 307.529 80.1533Z"
        fill="#90CAF9" />
    <path opacity="0.6"
        d="M307.529 80.1533C304.026 81.0873 301.57 95.4628 301.57 95.4628L311.227 102.001C311.227 102.001 320.483 87.4577 317.765 83.6093C314.982 79.6208 312.638 78.8549 307.529 80.1533Z"
        fill="#FAFAFA" />
    <path
        d="M307.211 85.3932L314.683 87.1305L315.402 94.4631C314.13 97.0548 312.727 99.5801 311.199 102.029L305.417 98.0779C305.623 94.6779 306.258 87.6723 307.211 85.3932Z"
        fill="#90CAF9" />
    <path opacity="0.3"
        d="M307.211 85.3932L314.683 87.1305L315.402 94.4631C314.13 97.0548 312.727 99.5801 311.199 102.029L305.417 98.0779C305.623 94.6779 306.258 87.6723 307.211 85.3932Z"
        fill="#FAFAFA" />
    <path
        d="M275.259 119.169L269.235 113.023L268.441 121.635C268.441 121.635 272.961 124.69 276.09 123.046L275.259 119.169Z"
        fill="#E4897B" />
    <path d="M262.145 112.145L261.865 119.394L268.441 121.673L269.225 113.061L262.145 112.145Z" fill="#E4897B" />
    <path d="M260.297 220.367L254.263 214.38L266.172 198.472L272.205 204.451L260.297 220.367Z" fill="#E4897B" />
    <path
        d="M257.644 210.167L266.349 214.109C266.501 214.172 266.624 214.289 266.693 214.438C266.762 214.587 266.773 214.756 266.723 214.912L264.603 222.245C264.542 222.428 264.444 222.596 264.315 222.738C264.186 222.881 264.028 222.994 263.852 223.072C263.675 223.149 263.485 223.189 263.293 223.188C263.1 223.187 262.91 223.146 262.735 223.067C259.727 221.638 258.345 220.797 254.515 219.069C252.162 218.004 246.016 215.51 242.766 214.044C239.515 212.577 240.795 209.28 242.28 209.597C248.949 211.045 253.32 210.849 256.141 210.055C256.64 209.918 257.171 209.957 257.644 210.167Z"
        fill="#263238" />
    <path d="M274.848 206.001L280.554 214.427L287.896 210.13L282.189 201.714L274.848 206.001Z" fill="#CE6F64" />
    <path d="M272.205 204.451L266.162 198.472L260.026 206.674L266.069 212.661L272.205 204.451Z" fill="#CE6F64" />
    <path
        d="M346.113 131.471H311.555C303.438 81.582 307.492 80.1622 307.492 80.1622C307.492 80.1622 313.049 79.0226 318.868 78.2941C319.867 78.1726 320.867 78.0605 321.857 77.9671C327.077 77.5931 332.318 77.5931 337.538 77.9671C338.529 78.0138 339.519 78.0885 340.49 78.1726C344.42 78.5287 348.327 79.1056 352.193 79.9007C345.515 108.754 345.58 117.413 346.113 131.471Z"
        fill="#90CAF9" />
    <path opacity="0.6"
        d="M346.113 131.471H311.555C303.438 81.582 307.492 80.1622 307.492 80.1622C307.492 80.1622 313.049 79.0226 318.868 78.2941C319.867 78.1726 320.867 78.0605 321.857 77.9671C327.077 77.5931 332.318 77.5931 337.538 77.9671C338.529 78.0138 339.519 78.0885 340.49 78.1726C344.42 78.5287 348.327 79.1056 352.193 79.9007C345.515 108.754 345.58 117.413 346.113 131.471Z"
        fill="#FAFAFA" />
    <path
        d="M340.527 78.1824L340.154 79.0604C339.957 79.5461 335.147 90.8485 325.826 98.3958L323.547 100.264L321.801 97.9008C316.561 90.8018 318.13 81.5731 318.905 78.3318C319.904 78.2104 320.904 78.0983 321.894 78.0049C327.115 77.6309 332.355 77.6309 337.576 78.0049C338.566 78.0236 339.556 78.0983 340.527 78.1824Z"
        fill="#90CAF9" />
    <path opacity="0.1"
        d="M340.527 78.1824L340.154 79.0604C339.957 79.5461 335.147 90.8485 325.826 98.3958L323.547 100.264L321.801 97.9008C316.561 90.8018 318.13 81.5731 318.905 78.3318C319.904 78.2104 320.904 78.0983 321.894 78.0049C327.115 77.6309 332.355 77.6309 337.576 78.0049C338.566 78.0236 339.556 78.0983 340.527 78.1824Z"
        fill="#FAFAFA" />
    <path
        d="M320.203 34.9714C312.656 31.5993 308.117 44.4242 308.631 53.5035C309.145 62.5827 310.499 73.7169 306.52 71.8487C302.541 69.9806 305.362 67.1784 305.362 67.1784C305.362 67.1784 299.758 71.6152 306.118 74.0532C312.479 76.4911 323.79 76.2576 330.402 73.1191C334.185 67.4119 332.56 46.0775 332.56 46.0775L320.203 34.9714Z"
        fill="#263238" />
    <path
        d="M336.016 60.3225C335.035 65.3665 334.045 74.6139 337.576 77.9766C337.576 77.9766 332.906 89.0267 324.061 96.2098C318.513 88.6904 321.894 77.9766 321.894 77.9766C327.498 76.6315 327.376 72.4562 326.396 68.5424L336.016 60.3225Z"
        fill="#E4897B" />
    <path
        d="M332.093 63.6757L326.396 68.5329C326.643 69.4502 326.806 70.3882 326.882 71.3352C329.03 71.0269 331.981 68.6637 332.215 66.4126C332.343 65.5006 332.302 64.5727 332.093 63.6757Z"
        fill="#CE6F64" />
    <path
        d="M336.614 47.0306C337.548 55.4373 338.174 58.9401 334.746 63.9374C329.59 71.4661 319.083 70.8309 315.627 62.91C312.517 55.783 311.443 43.2943 318.971 38.5212C320.625 37.4637 322.522 36.847 324.482 36.7299C326.442 36.6127 328.399 36.9989 330.167 37.8518C331.935 38.7047 333.456 39.9958 334.585 41.6025C335.713 43.2091 336.412 45.0777 336.614 47.0306Z"
        fill="#E4897B" />
    <path
        d="M319.904 41.2582C322.921 44.7984 332.046 55.1012 338.416 53.7655C344.954 52.3924 345.178 40.2214 337.295 35.1867C329.412 30.152 311.806 31.7586 319.904 41.2582Z"
        fill="#263238" />
    <path
        d="M338.799 26.4809C332.794 24.4913 332.261 30.3573 332.728 34.0096L340.107 39.4366C342.465 39.0645 344.748 38.3171 346.869 37.2228C349.764 35.5695 344.805 28.4705 338.799 26.4809Z"
        fill="#263238" />
    <path
        d="M340.154 54.2326C339.98 55.8488 339.203 57.3398 337.977 58.4079C336.334 59.7997 334.699 58.5667 334.466 56.5398C334.26 54.7276 334.867 51.8694 336.847 51.2062C338.827 50.543 340.34 52.2523 340.154 54.2326Z"
        fill="#E4897B" />
    <path
        d="M277.874 168.134C277.622 175.719 279.938 184.947 282.479 192.644C283.021 194.288 283.572 195.867 284.113 197.314C286.43 203.629 288.503 208.028 288.503 208.028L278.332 213.82C278.332 213.82 276.95 212.082 274.914 209.028C273.98 207.683 272.989 206.067 271.897 204.236C266.199 194.708 258.746 179.137 258.391 162.567C257.831 136.637 311.573 131.471 311.573 131.471H336.987L329.87 151.694C329.87 151.694 278.332 154.338 277.874 168.134Z"
        fill="#90CAF9" />
    <path opacity="0.6"
        d="M277.874 168.134C277.622 175.719 279.938 184.947 282.479 192.644C283.021 194.288 283.572 195.867 284.113 197.314C286.43 203.629 288.503 208.028 288.503 208.028L278.332 213.82C278.332 213.82 276.95 212.082 274.914 209.028C273.98 207.683 272.989 206.067 271.897 204.236C266.199 194.708 258.746 179.137 258.391 162.567C257.831 136.637 311.573 131.471 311.573 131.471H336.987L329.87 151.694C329.87 151.694 278.332 154.338 277.874 168.134Z"
        fill="black" />
    <path
        d="M284.113 197.361C282.787 199.566 279.2 205.18 274.932 209.028C273.998 207.683 273.008 206.067 271.915 204.236L282.479 192.672C283.002 194.288 283.571 195.895 284.113 197.361Z"
        fill="#263238" />
    <path
        d="M292.865 146.65L291.782 157.672C284.31 160.026 278.482 163.277 277.912 167.63C276.642 157.859 283.441 152.124 292.865 146.65Z"
        fill="#263238" />
    <path
        d="M320.708 131.462C320.708 131.462 288.896 144.446 284.048 158.793C277.865 177.101 261.053 202.975 261.053 202.975L268.114 212.166C268.114 212.166 287.523 193.354 300.748 171.814C317.317 144.726 357.237 173.337 346.159 131.462H320.708Z"
        fill="#90CAF9" />
    <path opacity="0.6"
        d="M320.708 131.462C320.708 131.462 288.896 144.446 284.048 158.793C277.865 177.101 261.053 202.975 261.053 202.975L268.114 212.166C268.114 212.166 287.523 193.354 300.748 171.814C317.317 144.726 357.237 173.337 346.159 131.462H320.708Z"
        fill="black" />
    <path
        d="M324.453 51.5981C324.575 52.2706 324.313 52.8871 323.874 52.9618C323.435 53.0366 322.94 52.5602 322.856 51.8783C322.772 51.1964 322.996 50.5986 323.435 50.5146C323.874 50.4305 324.332 50.9256 324.453 51.5981Z"
        fill="#263238" />
    <path
        d="M316.822 52.9618C316.943 53.6343 316.682 54.2508 316.243 54.3255C315.804 54.4002 315.309 53.9239 315.225 53.2513C315.141 52.5788 315.365 51.9623 315.804 51.8782C316.243 51.7942 316.701 52.3079 316.822 52.9618Z"
        fill="#263238" />
    <path d="M316.009 51.8878L314.3 51.7103C314.3 51.7103 315.365 52.8219 316.009 51.8878Z" fill="#263238" />
    <path
        d="M319.045 53.7653C318.719 55.4113 318.169 57.0048 317.41 58.501C317.801 58.6824 318.226 58.7764 318.657 58.7764C319.088 58.7764 319.513 58.6824 319.904 58.501L319.045 53.7653Z"
        fill="#DE5753" />
    <path
        d="M323.79 60.2757C323.764 60.2744 323.739 60.2658 323.717 60.251C323.696 60.2361 323.679 60.2156 323.669 60.1916C323.656 60.1594 323.657 60.1237 323.671 60.0922C323.685 60.0607 323.711 60.036 323.743 60.0235C325.021 59.403 326.021 58.3268 326.545 57.0064C326.551 56.9909 326.559 56.9765 326.57 56.9643C326.581 56.952 326.594 56.9421 326.609 56.9351C326.624 56.9282 326.64 56.9243 326.656 56.9237C326.673 56.9231 326.689 56.9258 326.704 56.9317C326.737 56.9443 326.763 56.9685 326.779 56.9996C326.794 57.0306 326.798 57.0664 326.788 57.0998C326.233 58.4955 325.168 59.6276 323.809 60.2664L323.79 60.2757Z"
        fill="#263238" />
    <path
        d="M325.303 48.572C325.238 48.5731 325.174 48.5498 325.125 48.5066C324.744 48.1464 324.283 47.8804 323.781 47.7296C323.278 47.5787 322.747 47.5474 322.23 47.6379C322.198 47.6478 322.163 47.6511 322.13 47.6474C322.096 47.6438 322.063 47.6334 322.034 47.6168C322.004 47.6002 321.978 47.5779 321.957 47.551C321.936 47.5241 321.921 47.4933 321.913 47.4604C321.895 47.3948 321.904 47.325 321.937 47.2657C321.97 47.2065 322.025 47.1624 322.09 47.1428C322.692 47.0155 323.315 47.0339 323.908 47.1964C324.501 47.3589 325.046 47.6608 325.499 48.0769C325.546 48.1257 325.573 48.191 325.573 48.2591C325.573 48.3271 325.546 48.3924 325.499 48.4412C325.48 48.4773 325.451 48.5081 325.417 48.5309C325.383 48.5537 325.344 48.5678 325.303 48.572Z"
        fill="#263238" />
    <path
        d="M312.657 49.9261H312.563C312.5 49.8974 312.45 49.8456 312.424 49.7813C312.398 49.717 312.398 49.6451 312.423 49.5805C312.656 49.0107 313.021 48.5048 313.489 48.1051C313.957 47.7053 314.514 47.4234 315.113 47.2827C315.18 47.2716 315.248 47.2874 315.304 47.3269C315.359 47.3663 315.396 47.426 315.407 47.4929C315.418 47.5598 315.402 47.6283 315.363 47.6835C315.324 47.7387 315.264 47.776 315.197 47.7871C314.684 47.916 314.208 48.1642 313.809 48.5115C313.41 48.8589 313.098 49.2955 312.899 49.786C312.876 49.83 312.841 49.8666 312.798 49.8914C312.755 49.9162 312.706 49.9283 312.657 49.9261Z"
        fill="#263238" />
    <path
        d="M256.588 210.868C255.486 210.653 253.58 210.149 253.16 209.177C253.092 209.004 253.068 208.816 253.093 208.631C253.118 208.446 253.189 208.271 253.3 208.122C253.353 208.023 253.431 207.941 253.526 207.883C253.621 207.826 253.731 207.795 253.842 207.795C254.897 207.795 256.551 210.354 256.728 210.653C256.743 210.675 256.751 210.701 256.751 210.728C256.751 210.754 256.743 210.781 256.728 210.802C256.712 210.824 256.691 210.842 256.666 210.853C256.642 210.865 256.615 210.87 256.588 210.868ZM253.786 208.066C253.723 208.066 253.661 208.084 253.606 208.117C253.552 208.15 253.508 208.197 253.478 208.252C253.394 208.365 253.341 208.497 253.321 208.635C253.301 208.774 253.317 208.915 253.366 209.046C253.618 209.616 254.683 210.149 256.252 210.494C255.654 209.626 254.468 208.066 253.786 208.066Z"
        fill="#90CAF9" />
    <path
        d="M256.588 210.868C256.567 210.867 256.546 210.862 256.526 210.852C256.507 210.842 256.49 210.829 256.476 210.812C255.869 209.98 255.327 207.757 255.851 207.019C255.937 206.899 256.062 206.813 256.206 206.775C256.349 206.738 256.501 206.751 256.635 206.814C256.776 206.852 256.906 206.923 257.015 207.02C257.123 207.117 257.208 207.239 257.261 207.374C257.756 208.477 256.766 210.69 256.719 210.784C256.709 210.806 256.693 210.825 256.674 210.84C256.654 210.854 256.631 210.864 256.607 210.868H256.588ZM256.346 207.047C256.292 207.045 256.239 207.057 256.192 207.082C256.144 207.106 256.104 207.143 256.075 207.188C255.682 207.739 256.075 209.551 256.57 210.419C256.803 209.812 257.354 208.28 256.999 207.496C256.96 207.397 256.898 207.308 256.819 207.237C256.739 207.165 256.645 207.113 256.542 207.085C256.479 207.061 256.413 207.048 256.346 207.047Z"
        fill="#90CAF9" />
    <path d="M323.64 50.5239L321.931 50.3464C321.931 50.3464 322.996 51.458 323.64 50.5239Z" fill="#263238" />
    <path
        d="M346.635 129.444L346.906 132.527C347.028 132.77 346.747 133.012 346.346 133.012H311.414C311.106 133.012 310.844 132.863 310.826 132.667L310.518 129.575C310.518 129.36 310.77 129.183 311.106 129.183H346.066C346.175 129.173 346.285 129.192 346.385 129.238C346.485 129.284 346.571 129.355 346.635 129.444Z"
        fill="#90CAF9" />
    <path opacity="0.2"
        d="M346.635 129.444L346.906 132.527C347.028 132.77 346.747 133.012 346.346 133.012H311.414C311.106 133.012 310.844 132.863 310.826 132.667L310.518 129.575C310.518 129.36 310.77 129.183 311.106 129.183H346.066C346.175 129.173 346.285 129.192 346.385 129.238C346.485 129.284 346.571 129.355 346.635 129.444Z"
        fill="#FAFAFA" />
    <path
        d="M341.937 133.349H342.871C343.058 133.349 343.198 133.255 343.189 133.134L342.75 129.117C342.75 129.005 342.573 128.903 342.386 128.903H341.452C341.265 128.903 341.125 129.005 341.134 129.117L341.573 133.134C341.583 133.255 341.751 133.349 341.937 133.349Z"
        fill="#90CAF9" />
    <path opacity="0.6"
        d="M341.937 133.349H342.871C343.058 133.349 343.198 133.255 343.189 133.134L342.75 129.117C342.75 129.005 342.573 128.903 342.386 128.903H341.452C341.265 128.903 341.125 129.005 341.134 129.117L341.573 133.134C341.583 133.255 341.751 133.349 341.937 133.349Z"
        fill="black" />
    <path
        d="M314.048 133.349H314.982C315.169 133.349 315.319 133.255 315.3 133.134L314.861 129.117C314.861 129.005 314.683 128.903 314.497 128.903H313.563C313.376 128.903 313.236 129.005 313.245 129.117L313.684 133.134C313.703 133.255 313.824 133.349 314.048 133.349Z"
        fill="#90CAF9" />
    <path opacity="0.6"
        d="M314.048 133.349H314.982C315.169 133.349 315.319 133.255 315.3 133.134L314.861 129.117C314.861 129.005 314.683 128.903 314.497 128.903H313.563C313.376 128.903 313.236 129.005 313.245 129.117L313.684 133.134C313.703 133.255 313.824 133.349 314.048 133.349Z"
        fill="black" />
    <path
        d="M327.993 133.349H328.927C329.113 133.349 329.254 133.255 329.244 133.134L328.805 129.117C328.805 129.005 328.628 128.903 328.441 128.903H327.507C327.32 128.903 327.18 129.005 327.189 129.117L327.628 133.134C327.647 133.255 327.834 133.349 327.993 133.349Z"
        fill="#90CAF9" />
    <path opacity="0.6"
        d="M327.993 133.349H328.927C329.113 133.349 329.254 133.255 329.244 133.134L328.805 129.117C328.805 129.005 328.628 128.903 328.441 128.903H327.507C327.32 128.903 327.18 129.005 327.189 129.117L327.628 133.134C327.647 133.255 327.834 133.349 327.993 133.349Z"
        fill="black" />
    <path
        d="M344.113 93.2954L348.568 97.0878C347.634 102.132 346.98 106.335 346.569 110.071C345.738 106.326 343.618 96.2098 344.113 93.2954Z"
        fill="#90CAF9" />
    <path opacity="0.3"
        d="M344.113 93.2954L348.568 97.0878C347.634 102.132 346.98 106.335 346.569 110.071C345.738 106.326 343.618 96.2098 344.113 93.2954Z"
        fill="#FAFAFA" />
    <path d="M249.724 107.605H310.322L319.101 143.381H258.513L249.724 107.605Z" fill="#FAFAFA" />
    <path d="M280.424 136.721L317.485 145.361L341.265 138.701L341.022 136.721H280.424Z" fill="#FAFAFA" />
    <path d="M247.865 107.605H308.454L317.233 143.381H256.645L247.865 107.605Z" fill="#90CAF9" />
    <g clip-path="url(#clip0_7_351)">
        <path
            d="M332.001 96.8596V96.8241H332.127V96.8596H332.001ZM332.032 96.9897V96.6945H332.143C332.192 96.6945 332.228 96.7069 332.252 96.7316C332.275 96.7562 332.287 96.793 332.287 96.8417C332.287 96.8904 332.275 96.9272 332.252 96.9521C332.228 96.977 332.192 96.9895 332.143 96.9895H332.032V96.9897ZM332.092 96.9413H332.136C332.166 96.9413 332.188 96.9334 332.203 96.9175C332.218 96.9015 332.225 96.8763 332.225 96.8417C332.225 96.8071 332.218 96.7819 332.203 96.7659C332.188 96.75 332.166 96.7421 332.136 96.7421H332.092V96.9413Z"
            fill="#3E5BA9" />
        <path
            d="M332.532 96.9949C332.503 96.9949 332.477 96.9895 332.456 96.9784C332.435 96.9673 332.419 96.9505 332.408 96.928C332.397 96.9056 332.391 96.8769 332.391 96.8422C332.391 96.7916 332.403 96.7538 332.428 96.7278C332.452 96.7018 332.487 96.6891 332.532 96.6891C332.561 96.6891 332.586 96.6948 332.607 96.7056C332.628 96.7167 332.645 96.7335 332.656 96.7559C332.667 96.7784 332.673 96.8071 332.673 96.8417C332.673 96.892 332.66 96.9302 332.636 96.9562C332.612 96.9822 332.577 96.9949 332.532 96.9949ZM332.448 96.6347L332.407 96.5846H332.458L332.48 96.6347H332.448ZM332.532 96.9445C332.549 96.9445 332.564 96.941 332.575 96.9343C332.587 96.9275 332.596 96.9164 332.602 96.9012C332.608 96.8861 332.611 96.8663 332.611 96.8417C332.611 96.8168 332.608 96.7971 332.602 96.7822C332.596 96.7673 332.587 96.7565 332.575 96.7497C332.564 96.7429 332.549 96.7394 332.532 96.7394C332.515 96.7394 332.5 96.7429 332.488 96.7497C332.477 96.7567 332.468 96.7676 332.462 96.7824C332.456 96.7973 332.453 96.8171 332.453 96.842C332.453 96.8669 332.456 96.8866 332.462 96.9015C332.468 96.9164 332.477 96.9272 332.488 96.934C332.5 96.941 332.515 96.9445 332.532 96.9445ZM332.475 96.6655L332.513 96.612H332.559L332.597 96.6655H332.56L332.536 96.6382L332.513 96.6655H332.475Z"
            fill="#3E5BA9" />
        <path
            d="M332.789 96.9897V96.6945H332.843L333.004 96.9145L332.987 96.9497V96.6942H333.043V96.9895H332.994L332.829 96.7681L332.845 96.741V96.9895H332.789V96.9897Z"
            fill="#3E5BA9" />
        <path
            d="M333.302 96.9949C333.272 96.9949 333.247 96.9895 333.226 96.9789C333.204 96.9683 333.188 96.9516 333.177 96.9291C333.165 96.9066 333.16 96.8774 333.16 96.8417C333.16 96.8065 333.165 96.7776 333.177 96.7548C333.188 96.7321 333.204 96.7153 333.226 96.7045C333.247 96.6937 333.272 96.6883 333.301 96.6883C333.32 96.6883 333.337 96.6902 333.354 96.6937C333.371 96.6972 333.388 96.7023 333.404 96.7091V96.7654C333.387 96.7567 333.371 96.75 333.356 96.7446C333.341 96.7391 333.325 96.7367 333.309 96.7367C333.29 96.7367 333.274 96.7402 333.261 96.747C333.248 96.7538 333.238 96.7648 333.231 96.7803C333.224 96.7957 333.221 96.816 333.221 96.8417C333.221 96.8671 333.224 96.8874 333.231 96.9029C333.238 96.9183 333.248 96.9294 333.261 96.9364C333.273 96.9435 333.289 96.9467 333.307 96.9467C333.316 96.9467 333.325 96.9462 333.333 96.9448C333.341 96.9435 333.349 96.9416 333.356 96.9389V96.8774H333.3V96.8287H333.416V96.9659C333.398 96.9754 333.38 96.9827 333.361 96.9876C333.341 96.9924 333.321 96.9949 333.302 96.9949Z"
            fill="#3E5BA9" />
        <path
            d="M333.729 96.9897V96.6945H333.79V96.8176H333.912V96.6945H333.972V96.9897H333.912V96.868H333.79V96.9897H333.729Z"
            fill="#3E5BA9" />
        <path
            d="M334.074 96.9897L334.188 96.6945H334.253L334.361 96.9897H334.299L334.202 96.7148L334.228 96.7121L334.132 96.9897H334.074ZM334.134 96.9175L334.149 96.8715H334.286L334.291 96.9175H334.134ZM334.204 96.6718L334.163 96.6217H334.215L334.236 96.6718H334.204Z"
            fill="#3E5BA9" />
        <path
            d="M334.463 96.9897V96.6945H334.517L334.678 96.9145L334.661 96.9497V96.6942H334.717V96.9895H334.668L334.503 96.7681L334.519 96.741V96.9895H334.463V96.9897Z"
            fill="#3E5BA9" />
        <path
            d="M334.845 96.9897V96.6945H334.905V96.8176H335.028V96.6945H335.088V96.9897H335.028V96.868H334.905V96.9897H334.845Z"
            fill="#3E5BA9" />
        <path d="M335.404 96.8758V96.8341H335.539V96.8758H335.404Z" fill="#3E5BA9" />
        <path
            d="M335.826 96.8596V96.8241H335.952V96.8596H335.826ZM335.856 96.9897V96.6945H335.967C336.016 96.6945 336.052 96.7069 336.076 96.7316C336.099 96.7562 336.111 96.793 336.111 96.8417C336.111 96.8904 336.099 96.9272 336.076 96.9521C336.052 96.977 336.016 96.9895 335.967 96.9895H335.856V96.9897ZM335.916 96.9413H335.96C335.99 96.9413 336.012 96.9334 336.027 96.9175C336.042 96.9015 336.049 96.8763 336.049 96.8417C336.049 96.8071 336.042 96.7819 336.027 96.7659C336.012 96.75 335.99 96.7421 335.96 96.7421H335.916V96.9413Z"
            fill="#3E5BA9" />
        <path
            d="M336.356 96.9949C336.327 96.9949 336.302 96.9895 336.281 96.9784C336.259 96.9673 336.243 96.9505 336.232 96.928C336.221 96.9056 336.215 96.8769 336.215 96.8422C336.215 96.7916 336.228 96.7538 336.252 96.7278C336.276 96.7018 336.311 96.6891 336.356 96.6891C336.385 96.6891 336.41 96.6948 336.432 96.7056C336.453 96.7167 336.469 96.7335 336.48 96.7559C336.491 96.7784 336.497 96.8071 336.497 96.8417C336.497 96.892 336.485 96.9302 336.46 96.9562C336.436 96.9822 336.401 96.9949 336.356 96.9949ZM336.272 96.6347L336.231 96.5846H336.282L336.304 96.6347H336.272ZM336.356 96.9445C336.373 96.9445 336.388 96.941 336.4 96.9343C336.411 96.9275 336.42 96.9164 336.426 96.9012C336.432 96.8861 336.435 96.8663 336.435 96.8417C336.435 96.8168 336.432 96.7971 336.426 96.7822C336.42 96.7673 336.411 96.7565 336.4 96.7497C336.388 96.7429 336.373 96.7394 336.356 96.7394C336.339 96.7394 336.324 96.7429 336.312 96.7497C336.301 96.7567 336.292 96.7676 336.286 96.7824C336.28 96.7973 336.277 96.8171 336.277 96.842C336.277 96.8669 336.28 96.8866 336.286 96.9015C336.292 96.9164 336.301 96.9272 336.312 96.934C336.324 96.941 336.338 96.9445 336.356 96.9445ZM336.299 96.6655L336.337 96.612H336.383L336.421 96.6655H336.384L336.36 96.6382L336.337 96.6655H336.299Z"
            fill="#3E5BA9" />
        <path
            d="M336.613 96.9897V96.6945H336.667L336.828 96.9145L336.811 96.9499V96.6945H336.867V96.9897H336.818L336.654 96.7684L336.67 96.7413V96.9897H336.613Z"
            fill="#3E5BA9" />
        <path
            d="M337.126 96.9949C337.096 96.9949 337.071 96.9895 337.05 96.9789C337.029 96.9683 337.012 96.9516 337.001 96.9291C336.99 96.9066 336.984 96.8774 336.984 96.8417C336.984 96.8065 336.99 96.7776 337.001 96.7548C337.012 96.7321 337.029 96.7153 337.05 96.7045C337.071 96.6937 337.096 96.6883 337.126 96.6883C337.144 96.6883 337.161 96.6902 337.178 96.6937C337.196 96.6972 337.212 96.7023 337.228 96.7091V96.7654C337.211 96.7567 337.195 96.75 337.18 96.7446C337.165 96.7391 337.15 96.7367 337.133 96.7367C337.114 96.7367 337.098 96.7402 337.085 96.747C337.072 96.7538 337.062 96.7648 337.055 96.7803C337.048 96.7957 337.045 96.816 337.045 96.8417C337.045 96.8671 337.049 96.8874 337.055 96.9029C337.062 96.9183 337.072 96.9294 337.085 96.9364C337.098 96.9435 337.113 96.9467 337.131 96.9467C337.14 96.9467 337.149 96.9462 337.157 96.9448C337.165 96.9435 337.173 96.9416 337.18 96.9389V96.8774H337.125V96.8287H337.24V96.9659C337.223 96.9754 337.204 96.9827 337.185 96.9876C337.165 96.9924 337.146 96.9949 337.126 96.9949Z"
            fill="#3E5BA9" />
        <path
            d="M337.554 96.9897V96.6945H337.671C337.694 96.6945 337.713 96.6975 337.728 96.7034C337.743 96.7094 337.755 96.7183 337.763 96.7302C337.771 96.7421 337.775 96.7573 337.775 96.7757C337.775 96.7887 337.772 96.7992 337.766 96.8076C337.76 96.816 337.753 96.8225 337.746 96.8274C337.738 96.8322 337.73 96.8363 337.723 96.8401L337.716 96.8274C337.73 96.8287 337.743 96.8325 337.754 96.8387C337.765 96.8447 337.774 96.8531 337.781 96.8636C337.788 96.8742 337.791 96.8872 337.791 96.9026C337.791 96.9229 337.786 96.9397 337.777 96.9524C337.767 96.9651 337.755 96.9748 337.738 96.9808C337.721 96.987 337.703 96.99 337.682 96.99H337.554V96.9897ZM337.614 96.8138H337.676C337.682 96.8138 337.688 96.8127 337.694 96.8109C337.7 96.809 337.705 96.8054 337.708 96.8006C337.712 96.7957 337.714 96.7889 337.714 96.78C337.714 96.7657 337.71 96.7556 337.702 96.7502C337.694 96.7448 337.684 96.7424 337.672 96.7424H337.614V96.8138ZM337.614 96.9413H337.679C337.688 96.9413 337.696 96.9402 337.704 96.9378C337.711 96.9353 337.717 96.931 337.722 96.9251C337.727 96.9188 337.729 96.9102 337.729 96.8993C337.729 96.8912 337.728 96.8845 337.725 96.8793C337.722 96.8742 337.718 96.8701 337.713 96.8674C337.709 96.8647 337.703 96.8628 337.697 96.8617C337.691 96.8606 337.684 96.8601 337.678 96.8601H337.614V96.9413Z"
            fill="#3E5BA9" />
        <path
            d="M338.036 96.9949C338.007 96.9949 337.982 96.9895 337.961 96.9784C337.94 96.9673 337.923 96.9505 337.912 96.928C337.901 96.9056 337.896 96.8769 337.896 96.8423C337.896 96.7917 337.908 96.7538 337.932 96.7278C337.956 96.7018 337.991 96.6891 338.036 96.6891C338.065 96.6891 338.091 96.6948 338.112 96.7056C338.133 96.7167 338.149 96.7335 338.16 96.7559C338.171 96.7784 338.177 96.8071 338.177 96.8417C338.177 96.8921 338.165 96.9302 338.14 96.9562C338.116 96.9822 338.081 96.9949 338.036 96.9949ZM338.036 96.9446C338.054 96.9446 338.068 96.941 338.08 96.9343C338.091 96.9275 338.1 96.9164 338.106 96.9013C338.112 96.8861 338.115 96.8663 338.115 96.8417C338.115 96.8168 338.112 96.7971 338.106 96.7822C338.1 96.7673 338.091 96.7565 338.08 96.7497C338.068 96.7429 338.054 96.7394 338.036 96.7394C338.019 96.7394 338.004 96.7429 337.993 96.7497C337.981 96.7567 337.972 96.7676 337.966 96.7825C337.96 96.7973 337.957 96.8171 337.957 96.842C337.957 96.8669 337.96 96.8866 337.966 96.9015C337.972 96.9164 337.981 96.9272 337.993 96.934C338.004 96.941 338.019 96.9446 338.036 96.9446ZM337.977 96.6674L338.015 96.6139H338.061L338.099 96.6674H338.062L338.038 96.6401L338.014 96.6674H337.977ZM338.016 97.0533V97.0117H338.06V97.0533H338.016Z"
            fill="#3E5BA9" />
        <path d="M338.481 96.8758V96.8341H338.616V96.8758H338.481Z" fill="#3E5BA9" />
        <path
            d="M338.902 96.8596V96.8241H339.028V96.8596H338.902ZM338.933 96.9897V96.6945H339.044C339.093 96.6945 339.129 96.7069 339.153 96.7316C339.176 96.7562 339.188 96.793 339.188 96.8417C339.188 96.8904 339.176 96.9272 339.153 96.9521C339.129 96.977 339.093 96.9895 339.044 96.9895H338.933V96.9897ZM338.993 96.9413H339.037C339.067 96.9413 339.089 96.9334 339.104 96.9175C339.119 96.9015 339.126 96.8763 339.126 96.8417C339.126 96.8071 339.119 96.7819 339.104 96.7659C339.089 96.75 339.067 96.7421 339.037 96.7421H338.993V96.9413Z"
            fill="#3E5BA9" />
        <path
            d="M339.433 96.9949C339.403 96.9949 339.378 96.9895 339.357 96.9784C339.336 96.9673 339.32 96.9505 339.309 96.928C339.298 96.9056 339.292 96.8769 339.292 96.8422C339.292 96.7916 339.304 96.7538 339.329 96.7278C339.353 96.7018 339.388 96.6891 339.433 96.6891C339.462 96.6891 339.487 96.6948 339.508 96.7056C339.529 96.7167 339.546 96.7335 339.557 96.7559C339.568 96.7784 339.573 96.8071 339.573 96.8417C339.573 96.892 339.561 96.9302 339.537 96.9562C339.513 96.9822 339.478 96.9949 339.433 96.9949ZM339.349 96.6347L339.307 96.5846H339.359L339.38 96.6347H339.349ZM339.433 96.9445C339.45 96.9445 339.465 96.941 339.476 96.9343C339.488 96.9275 339.497 96.9164 339.503 96.9012C339.508 96.8861 339.511 96.8663 339.511 96.8417C339.511 96.8168 339.508 96.7971 339.503 96.7822C339.497 96.7673 339.488 96.7565 339.476 96.7497C339.465 96.7429 339.45 96.7394 339.433 96.7394C339.415 96.7394 339.401 96.7429 339.389 96.7497C339.378 96.7567 339.369 96.7676 339.363 96.7824C339.357 96.7973 339.354 96.8171 339.354 96.842C339.354 96.8669 339.357 96.8866 339.363 96.9015C339.369 96.9164 339.378 96.9272 339.389 96.934C339.401 96.941 339.415 96.9445 339.433 96.9445ZM339.376 96.6655L339.414 96.612H339.46L339.498 96.6655H339.461L339.437 96.6382L339.413 96.6655H339.376Z"
            fill="#3E5BA9" />
        <path
            d="M339.69 96.9897V96.6945H339.744L339.905 96.9145L339.888 96.9499V96.6945H339.944V96.9897H339.895L339.73 96.7684L339.746 96.7413V96.9897H339.69Z"
            fill="#3E5BA9" />
        <path
            d="M340.203 96.9949C340.173 96.9949 340.148 96.9895 340.127 96.9789C340.105 96.9683 340.089 96.9516 340.078 96.9291C340.066 96.9066 340.061 96.8774 340.061 96.8417C340.061 96.8065 340.066 96.7776 340.078 96.7548C340.089 96.7321 340.105 96.7153 340.127 96.7045C340.148 96.6937 340.173 96.6883 340.202 96.6883C340.22 96.6883 340.238 96.6902 340.255 96.6937C340.272 96.6972 340.289 96.7023 340.305 96.7091V96.7654C340.288 96.7567 340.272 96.75 340.257 96.7446C340.242 96.7391 340.226 96.7367 340.21 96.7367C340.191 96.7367 340.174 96.7402 340.161 96.747C340.148 96.7538 340.138 96.7648 340.132 96.7803C340.125 96.7957 340.122 96.816 340.122 96.8417C340.122 96.8671 340.125 96.8874 340.132 96.9029C340.139 96.9183 340.148 96.9294 340.161 96.9364C340.174 96.9435 340.19 96.9467 340.208 96.9467C340.217 96.9467 340.226 96.9462 340.234 96.9448C340.242 96.9435 340.249 96.9416 340.256 96.9389V96.8774H340.201V96.8287H340.317V96.9659C340.299 96.9754 340.281 96.9827 340.262 96.9876C340.242 96.9924 340.222 96.9949 340.203 96.9949Z"
            fill="#3E5BA9" />
        <path
            d="M340.69 96.8882V96.9897H340.63V96.6945H340.755C340.789 96.6945 340.816 96.7023 340.835 96.718C340.854 96.7337 340.863 96.7575 340.863 96.7892C340.863 96.8209 340.854 96.8455 340.835 96.8625C340.816 96.8796 340.789 96.8882 340.755 96.8882H340.69ZM340.69 96.8395H340.748C340.758 96.8395 340.766 96.8385 340.773 96.836C340.78 96.8336 340.785 96.8303 340.789 96.8257C340.792 96.8211 340.795 96.816 340.797 96.8106C340.798 96.8052 340.799 96.7989 340.799 96.7925C340.799 96.7857 340.798 96.7792 340.797 96.7735C340.795 96.7678 340.792 96.7624 340.789 96.7575C340.785 96.7527 340.78 96.7492 340.773 96.7467C340.766 96.7443 340.758 96.7429 340.748 96.7429H340.69V96.8395Z"
            fill="#3E5BA9" />
        <path
            d="M340.98 96.9897V96.6945H341.04V96.8176H341.163V96.6945H341.223V96.9897H341.163V96.868H341.04V96.9897H340.98Z"
            fill="#3E5BA9" />
        <path
            d="M341.325 96.9897L341.438 96.6945H341.503L341.612 96.9897H341.549L341.452 96.7148L341.479 96.7121L341.383 96.9897H341.325ZM341.385 96.9175L341.399 96.8715H341.536L341.542 96.9175H341.385ZM341.454 96.6696L341.473 96.619H341.532L341.484 96.6696H341.454Z"
            fill="#3E5BA9" />
        <path d="M341.779 96.9897V96.7427H341.69V96.6945H341.929V96.7427H341.84V96.9897H341.779Z" fill="#3E5BA9" />
        <path d="M342 94.0051L339.681 94.0059C339.322 94.0051 339.133 94.1274 339.025 94.6457H341.014L342 94.0051Z"
            fill="#3E5BA9" />
        <path d="M341.19 94.6454H341.855L342 94.0511L341.19 94.6454Z" fill="#F05223" />
        <path
            d="M341.344 94.86H339.794C339.75 94.86 339.729 94.8438 339.729 94.8107C339.729 94.8013 339.73 94.7913 339.733 94.7807L339.753 94.7133L339.005 94.722L338.967 94.8676C338.948 94.9352 338.923 95.0399 338.925 95.0808C338.938 95.2892 339.088 95.3317 339.254 95.3357H340.803C340.847 95.3357 340.869 95.3522 340.869 95.385C340.869 95.3945 340.867 95.4045 340.864 95.415L340.843 95.4943C340.828 95.5474 340.793 95.5736 340.738 95.5736L338.782 95.5709L338.617 96.2052L340.972 96.2082C341.298 96.2082 341.52 95.9966 341.636 95.5736L341.701 95.3357C341.72 95.2692 341.729 95.2094 341.729 95.1566C341.729 94.9598 341.6 94.8611 341.344 94.86Z"
            fill="#3E5BA9" />
        <path
            d="M336.555 94.6408C336.561 94.64 338.622 94.6413 338.622 94.6413C338.652 94.5296 338.668 94.4311 338.668 94.3491C338.668 94.1182 338.547 94.0024 338.306 94.0013H336.34C336.012 94.0024 335.79 94.2151 335.673 94.6395L335.672 94.6413L336.555 94.6408Z"
            fill="#3E5BA9" />
        <path
            d="M337.772 94.7415L337.562 95.4973C337.547 95.5501 337.512 95.5763 337.457 95.5763H336.31C336.268 95.5763 336.246 95.5601 336.246 95.5273C336.246 95.5189 336.248 95.5089 336.251 95.4973L336.457 94.7566L335.634 94.7661L335.409 95.5763C335.378 95.687 335.363 95.7833 335.363 95.8656C335.363 96.0943 335.483 96.2087 335.725 96.2087H337.691C338.019 96.2087 338.241 95.9979 338.358 95.5766L338.593 94.7323L337.772 94.7415Z"
            fill="#3E5BA9" />
        <path
            d="M335.287 94.6454L335.288 94.6403C335.318 94.5282 335.333 94.4305 335.333 94.3472C335.333 94.1166 335.217 94.0008 334.983 93.9997L332.552 94.0049L332.424 94.6454H335.287Z"
            fill="#3E5BA9" />
        <path
            d="M334.51 94.7832L334.519 94.8727H332.36L332 96.2185L334.385 96.2201C334.703 96.2201 334.919 96.0085 335.032 95.5855L335.075 95.4253C335.082 95.401 335.085 95.3761 335.085 95.3506C335.085 95.2768 335.057 95.1958 335.002 95.1079C335.139 94.9905 335.22 94.8849 335.245 94.7905L335.25 94.7742L334.51 94.7832ZM334.28 95.4267L334.257 95.506C334.244 95.5587 334.21 95.5853 334.157 95.5853L332.964 95.5836L333.028 95.3471H334.221C334.263 95.3471 334.285 95.3636 334.285 95.3964C334.285 95.4061 334.283 95.4161 334.28 95.4267Z"
            fill="#3E5BA9" />
    </g>
    <path opacity="0.2" d="M247.865 107.605H308.454L317.233 143.381H256.645L247.865 107.605Z" fill="#FAFAFA" />
    <path d="M256.645 143.381L256.887 145.361H317.485L317.233 143.381H256.645Z" fill="#90CAF9" />
    <path opacity="0.2" d="M256.645 143.381L256.887 145.361H317.485L317.233 143.381H256.645Z" fill="#FAFAFA" />
    <path
        d="M355.49 89.4002C357.207 94.4176 358.66 99.5216 359.842 104.691C360.459 107.288 360.972 109.913 361.365 112.64C361.561 114.004 361.72 115.396 361.804 116.853C361.804 117.581 361.86 118.329 361.804 119.113V119.72V120.047L361.757 120.496C361.688 121.076 361.563 121.649 361.383 122.205C360.747 124.032 359.661 125.67 358.227 126.969C357.081 128.03 355.829 128.969 354.491 129.771C352.082 131.201 349.546 132.405 346.916 133.367C344.366 134.301 341.797 135.095 339.229 135.796C336.66 136.496 334.092 137.038 331.411 137.468L330.356 133.199C332.7 132.34 335.119 131.434 337.436 130.397C339.752 129.36 342.106 128.407 344.273 127.277C346.414 126.222 348.467 124.995 350.409 123.606C351.256 123 352.038 122.308 352.744 121.542C353.216 121.065 353.569 120.482 353.771 119.842C353.776 119.051 353.723 118.261 353.613 117.479C353.472 116.348 353.267 115.171 353.043 113.976C352.566 111.594 351.95 109.165 351.334 106.727C350.717 104.289 349.979 101.851 349.251 99.4229C348.522 96.9943 347.775 94.5283 347.047 92.1558L355.49 89.4002Z"
        fill="#E4897B" />
    <path
        d="M352.23 79.9101C355.695 80.9562 360.991 94.5377 360.991 94.5377L347.57 104.131C347.57 104.131 341.536 92.5201 342.984 88.0552C344.497 83.3942 348.289 78.7051 352.23 79.9101Z"
        fill="#90CAF9" />
    <path opacity="0.6"
        d="M352.23 79.9101C355.695 80.9562 360.991 94.5377 360.991 94.5377L347.57 104.131C347.57 104.131 341.536 92.5201 342.984 88.0552C344.497 83.3942 348.289 78.7051 352.23 79.9101Z"
        fill="#FAFAFA" />
    <path
        d="M332.121 133.508L324.098 131.462L327.936 139.215C327.936 139.215 333.391 139.448 335.194 136.413L332.121 133.508Z"
        fill="#E4897B" />
    <path d="M317.55 134.414L321.108 140.719L327.899 139.215L324.06 131.471L317.55 134.414Z" fill="#E4897B" />
    <defs>
        <clipPath id="clip0_7_351">
            <rect width="10" height="3.05334" fill="white" transform="translate(332 94)" />
        </clipPath>
    </defs>
</svg>