<svg width="158" height="48" viewBox="0 0 158 48" fill="none" xmlns="http://www.w3.org/2000/svg">
<path d="M0.0212402 44.9539V44.3966H1.99944V44.9539H0.0212402ZM0.497709 47.0002V42.3589H2.24618C3.01619 42.3589 3.58625 42.5546 3.95636 42.9417C4.32648 43.3288 4.50941 43.9074 4.50941 44.6732C4.50941 45.4389 4.32648 46.0175 3.95636 46.4089C3.58625 46.8003 3.01619 46.996 2.24618 46.996H0.497709V47.0002ZM1.44214 46.2387H2.13983C2.60779 46.2387 2.95663 46.1153 3.19061 45.8643C3.42459 45.6133 3.53945 45.2177 3.53945 44.6732C3.53945 44.1286 3.42459 43.733 3.19061 43.482C2.95663 43.231 2.60779 43.1076 2.13983 43.1076H1.44214V46.2387Z" fill="#3E5BA9"/>
<path d="M8.3595 47.0811C7.90005 47.0811 7.50441 46.996 7.17258 46.8216C6.84076 46.6471 6.5855 46.3834 6.41108 46.0303C6.23666 45.6772 6.14732 45.2262 6.14732 44.6817C6.14732 43.8862 6.33876 43.2906 6.72164 42.8822C7.10452 42.4738 7.64905 42.2738 8.3595 42.2738C8.81895 42.2738 9.21459 42.3632 9.54642 42.5333C9.87825 42.7078 10.1335 42.9715 10.3079 43.3246C10.4823 43.6777 10.5717 44.1287 10.5717 44.6732C10.5717 45.4645 10.3802 46.0643 9.99736 46.4727C9.61449 46.8811 9.06995 47.0811 8.3595 47.0811ZM7.03645 41.4187L6.38981 40.6317H7.19811L7.53844 41.4187H7.03645ZM8.3595 46.2898C8.63177 46.2898 8.8615 46.2345 9.04443 46.1281C9.22736 46.0218 9.36349 45.8473 9.45708 45.6091C9.55067 45.3709 9.59747 45.0603 9.59747 44.6732C9.59747 44.2818 9.55067 43.9712 9.45708 43.7373C9.36349 43.5033 9.22736 43.3331 9.04443 43.2268C8.8615 43.1204 8.63177 43.0651 8.3595 43.0651C8.08723 43.0651 7.85751 43.1204 7.67458 43.2268C7.49165 43.3374 7.35551 43.5075 7.26192 43.7415C7.16833 43.9755 7.12153 44.2861 7.12153 44.6774C7.12153 45.0688 7.16833 45.3794 7.26192 45.6134C7.35551 45.8473 7.49165 46.0175 7.67458 46.1239C7.85751 46.2345 8.08723 46.2898 8.3595 46.2898ZM7.47038 41.9037L8.07022 41.0614H8.79343L9.38476 41.9037H8.80194L8.43182 41.474L8.05745 41.9037H7.47038Z" fill="#3E5BA9"/>
<path d="M12.4009 47.0003V42.3589H13.2517L15.7829 45.8176L15.5107 46.3706V42.3547H16.3956V46.996H15.6213L13.0347 43.5161L13.2857 43.0907V46.996H12.4009V47.0003Z" fill="#3E5BA9"/>
<path d="M20.4583 47.081C19.9946 47.081 19.5947 46.996 19.2629 46.83C18.9268 46.6641 18.6716 46.4004 18.4929 46.0473C18.3142 45.6942 18.2249 45.2347 18.2249 44.6732C18.2249 44.1201 18.3142 43.6649 18.4929 43.3076C18.6716 42.9502 18.9268 42.6865 19.2629 42.5163C19.5947 42.3461 19.9946 42.261 20.4541 42.261C20.7391 42.261 21.0114 42.2908 21.2836 42.3461C21.5517 42.4014 21.8112 42.4823 22.0622 42.5886V43.4735C21.7984 43.3374 21.5474 43.231 21.3092 43.1459C21.0709 43.0608 20.8284 43.0225 20.5732 43.0225C20.2711 43.0225 20.0159 43.0779 19.8117 43.1842C19.6075 43.2906 19.4501 43.465 19.3437 43.7075C19.2374 43.95 19.1863 44.269 19.1863 44.6732C19.1863 45.0731 19.2416 45.3921 19.348 45.6346C19.4543 45.8771 19.6075 46.0515 19.8117 46.1621C20.0116 46.2727 20.2541 46.3238 20.5392 46.3238C20.6838 46.3238 20.8199 46.3153 20.9476 46.294C21.0752 46.2727 21.1943 46.243 21.3049 46.2004V45.2347H20.4371V44.469H22.2536V46.6258C21.9771 46.7747 21.6835 46.8896 21.3857 46.9662C21.0752 47.0428 20.7689 47.081 20.4583 47.081Z" fill="#3E5BA9"/>
<path d="M27.1884 47.0002V42.3589H28.1328V44.2945H30.06V42.3589H31.0044V47.0002H30.06V45.0858H28.1328V47.0002H27.1884Z" fill="#3E5BA9"/>
<path d="M32.6083 47.0002L34.3908 42.3589H35.4118L37.1177 47.0002H36.135L34.6162 42.678L35.0331 42.6354L33.5229 47.0002H32.6083ZM33.5484 45.8644L33.7782 45.1412H35.935L36.0201 45.8644H33.5484ZM34.6545 42.0016L34.0079 41.2145H34.8162L35.1565 42.0016H34.6545Z" fill="#3E5BA9"/>
<path d="M38.7173 47.0003V42.3589H39.5682L42.0994 45.8176L41.8272 46.3706V42.3547H42.712V46.996H41.9378L39.3512 43.5161L39.6022 43.0907V46.996H38.7173V47.0003Z" fill="#3E5BA9"/>
<path d="M44.7285 47.0002V42.3589H45.6729V44.2945H47.6V42.3589H48.5445V47.0002H47.6V45.0858H45.6729V47.0002H44.7285Z" fill="#3E5BA9"/>
<path d="M53.5177 45.2092V44.5541H55.6405V45.2092H53.5177Z" fill="#3E5BA9"/>
<path d="M60.1414 44.9539V44.3966H62.1196V44.9539H60.1414ZM60.6136 47.0002V42.3589H62.3621C63.1321 42.3589 63.7021 42.5546 64.0722 42.9417C64.4424 43.3288 64.6253 43.9074 64.6253 44.6732C64.6253 45.4389 64.4424 46.0175 64.0722 46.4089C63.7021 46.8003 63.1321 46.996 62.3621 46.996H60.6136V47.0002ZM61.5623 46.2387H62.26C62.7279 46.2387 63.0768 46.1153 63.3107 45.8643C63.5447 45.6133 63.6596 45.2177 63.6596 44.6732C63.6596 44.1286 63.5447 43.733 63.3107 43.482C63.0768 43.231 62.7279 43.1076 62.26 43.1076H61.5623V46.2387Z" fill="#3E5BA9"/>
<path d="M68.4797 47.0811C68.0202 47.0811 67.6246 46.996 67.2927 46.8216C66.9609 46.6471 66.7057 46.3834 66.5312 46.0303C66.3568 45.6772 66.2675 45.2262 66.2675 44.6817C66.2675 43.8862 66.4589 43.2906 66.8418 42.8822C67.2247 42.4738 67.7692 42.2738 68.4797 42.2738C68.9391 42.2738 69.3348 42.3632 69.6666 42.5333C69.9984 42.7078 70.2537 42.9715 70.4281 43.3246C70.6025 43.6777 70.6918 44.1287 70.6918 44.6732C70.6918 45.4645 70.5004 46.0643 70.1175 46.4727C69.7347 46.8811 69.1901 47.0811 68.4797 47.0811ZM67.1566 41.4187L66.51 40.6317H67.3183L67.6586 41.4187H67.1566ZM68.4797 46.2898C68.7519 46.2898 68.9817 46.2345 69.1646 46.1281C69.3475 46.0218 69.4837 45.8473 69.5772 45.6091C69.6708 45.3709 69.7176 45.0603 69.7176 44.6732C69.7176 44.2818 69.6708 43.9712 69.5772 43.7373C69.4837 43.5033 69.3475 43.3331 69.1646 43.2268C68.9817 43.1204 68.7519 43.0651 68.4797 43.0651C68.2074 43.0651 67.9777 43.1204 67.7947 43.2268C67.6118 43.3374 67.4757 43.5075 67.3821 43.7415C67.2885 43.9755 67.2417 44.2861 67.2417 44.6774C67.2417 45.0688 67.2885 45.3794 67.3821 45.6134C67.4757 45.8473 67.6118 46.0175 67.7947 46.1239C67.9777 46.2345 68.2031 46.2898 68.4797 46.2898ZM67.5863 41.9037L68.1861 41.0614H68.9093L69.5007 41.9037H68.9178L68.5477 41.474L68.1734 41.9037H67.5863Z" fill="#3E5BA9"/>
<path d="M72.5211 47.0002V42.3589H73.372L75.9032 45.8175L75.631 46.3748V42.3589H76.5158V47.0002H75.7416L73.155 43.5203L73.406 43.0949V47.0002H72.5211Z" fill="#3E5BA9"/>
<path d="M80.5785 47.081C80.1148 47.081 79.7149 46.996 79.3831 46.83C79.047 46.6641 78.7917 46.4004 78.613 46.0473C78.4344 45.6942 78.345 45.2347 78.345 44.6732C78.345 44.1201 78.4344 43.6649 78.613 43.3076C78.7917 42.9502 79.047 42.6865 79.3831 42.5163C79.7149 42.3461 80.1148 42.261 80.5742 42.261C80.8593 42.261 81.1315 42.2908 81.4038 42.3461C81.6718 42.4014 81.9313 42.4823 82.1823 42.5886V43.4735C81.9186 43.3374 81.6676 43.231 81.4293 43.1459C81.1911 43.0608 80.9486 43.0225 80.6933 43.0225C80.3913 43.0225 80.1361 43.0779 79.9318 43.1842C79.7276 43.2906 79.5702 43.465 79.4639 43.7075C79.3575 43.95 79.3065 44.269 79.3065 44.6732C79.3065 45.0731 79.3618 45.3921 79.4681 45.6346C79.5745 45.8771 79.7276 46.0515 79.9318 46.1621C80.1318 46.2727 80.3743 46.3238 80.6593 46.3238C80.804 46.3238 80.9401 46.3153 81.0677 46.294C81.1953 46.2727 81.3145 46.243 81.4251 46.2004V45.2347H80.5572V44.469H82.3738V46.6258C82.0972 46.7747 81.8037 46.8896 81.5059 46.9662C81.1953 47.0428 80.889 47.081 80.5785 47.081Z" fill="#3E5BA9"/>
<path d="M87.3087 47.0002V42.3589H89.1508C89.5081 42.3589 89.8059 42.4057 90.0484 42.4993C90.2909 42.5929 90.4738 42.7333 90.5972 42.9204C90.7206 43.1076 90.7844 43.3459 90.7844 43.6351C90.7844 43.8393 90.7376 44.0053 90.6483 44.1371C90.5589 44.269 90.4483 44.3711 90.3249 44.4477C90.2016 44.5243 90.0824 44.5881 89.9718 44.6476L89.8612 44.4477C90.0782 44.469 90.2781 44.5285 90.4526 44.6264C90.627 44.72 90.7716 44.8518 90.878 45.0178C90.9843 45.1837 91.0396 45.3879 91.0396 45.6304C91.0396 45.9494 90.9673 46.2132 90.8184 46.4131C90.6695 46.6131 90.4653 46.7662 90.2058 46.8598C89.9463 46.9577 89.6528 47.0045 89.3295 47.0045H87.3087V47.0002ZM88.2531 44.235H89.2274C89.3295 44.235 89.4273 44.218 89.5166 44.1882C89.606 44.1584 89.6826 44.1031 89.7379 44.0265C89.7974 43.95 89.8229 43.8436 89.8229 43.7032C89.8229 43.4777 89.7634 43.3203 89.64 43.2352C89.5166 43.1502 89.3592 43.1119 89.1635 43.1119H88.2531V44.235ZM88.2617 46.2387H89.2827C89.423 46.2387 89.5507 46.2217 89.6698 46.1834C89.7889 46.1451 89.8825 46.077 89.9591 45.9835C90.0314 45.8856 90.0697 45.7495 90.0697 45.5793C90.0697 45.4517 90.0442 45.3453 90.0016 45.2645C89.9548 45.1837 89.8953 45.1199 89.8187 45.0773C89.7421 45.0348 89.657 45.005 89.5592 44.988C89.4613 44.971 89.3635 44.9625 89.2656 44.9625H88.2617V46.2387Z" fill="#3E5BA9"/>
<path d="M94.8896 47.081C94.4302 47.081 94.0345 46.9959 93.7027 46.8215C93.3709 46.6471 93.1156 46.3833 92.9412 46.0302C92.7668 45.6771 92.6774 45.2262 92.6774 44.6817C92.6774 43.8861 92.8689 43.2905 93.2517 42.8821C93.6346 42.4737 94.1792 42.2738 94.8896 42.2738C95.3491 42.2738 95.7447 42.3631 96.0765 42.5333C96.4084 42.7077 96.6636 42.9715 96.838 43.3246C97.0125 43.6777 97.1018 44.1286 97.1018 44.6732C97.1018 45.4644 96.9104 46.0643 96.5275 46.4727C96.1489 46.8811 95.6001 47.081 94.8896 47.081ZM94.8896 46.2897C95.1619 46.2897 95.3916 46.2344 95.5745 46.1281C95.7575 46.0217 95.8936 45.8473 95.9872 45.6091C96.0808 45.3708 96.1276 45.0603 96.1276 44.6732C96.1276 44.2818 96.0808 43.9712 95.9872 43.7372C95.8936 43.5033 95.7575 43.3331 95.5745 43.2267C95.3916 43.1204 95.1619 43.0651 94.8896 43.0651C94.6173 43.0651 94.3876 43.1204 94.2047 43.2267C94.0218 43.3373 93.8856 43.5075 93.792 43.7415C93.6984 43.9755 93.6516 44.286 93.6516 44.6774C93.6516 45.0688 93.6984 45.3793 93.792 45.6133C93.8856 45.8473 94.0218 46.0175 94.2047 46.1238C94.3876 46.2344 94.6173 46.2897 94.8896 46.2897ZM93.9579 41.9335L94.5578 41.0911H95.281L95.8723 41.9335H95.2895L94.9194 41.5038L94.545 41.9335H93.9579ZM94.5705 47.9999V47.3448H95.2682V47.9999H94.5705Z" fill="#3E5BA9"/>
<path d="M101.884 45.2092V44.5541H104.006V45.2092H101.884Z" fill="#3E5BA9"/>
<path d="M108.507 44.9539V44.3966H110.485V44.9539H108.507ZM108.984 47.0002V42.3589H110.732C111.502 42.3589 112.072 42.5546 112.442 42.9417C112.813 43.3288 112.995 43.9074 112.995 44.6732C112.995 45.4389 112.813 46.0175 112.442 46.4089C112.072 46.8003 111.502 46.996 110.732 46.996H108.984V47.0002ZM109.928 46.2387H110.626C111.094 46.2387 111.443 46.1153 111.677 45.8643C111.911 45.6133 112.025 45.2177 112.025 44.6732C112.025 44.1286 111.911 43.733 111.677 43.482C111.443 43.231 111.094 43.1076 110.626 43.1076H109.928V46.2387Z" fill="#3E5BA9"/>
<path d="M116.846 47.0811C116.386 47.0811 115.99 46.996 115.659 46.8216C115.327 46.6471 115.072 46.3834 114.897 46.0303C114.723 45.6772 114.633 45.2262 114.633 44.6817C114.633 43.8862 114.825 43.2906 115.208 42.8822C115.591 42.4738 116.135 42.2738 116.846 42.2738C117.305 42.2738 117.701 42.3632 118.032 42.5333C118.364 42.7078 118.62 42.9715 118.794 43.3246C118.968 43.6777 119.058 44.1287 119.058 44.6732C119.058 45.4645 118.866 46.0643 118.483 46.4727C118.101 46.8811 117.556 47.0811 116.846 47.0811ZM115.522 41.4187L114.876 40.6317H115.684L116.024 41.4187H115.522ZM116.846 46.2898C117.118 46.2898 117.348 46.2345 117.53 46.1281C117.713 46.0218 117.85 45.8473 117.943 45.6091C118.037 45.3709 118.084 45.0603 118.084 44.6732C118.084 44.2818 118.037 43.9712 117.943 43.7373C117.85 43.5033 117.713 43.3331 117.53 43.2268C117.348 43.1204 117.118 43.0651 116.846 43.0651C116.573 43.0651 116.344 43.1204 116.161 43.2268C115.978 43.3374 115.842 43.5075 115.748 43.7415C115.654 43.9755 115.608 44.2861 115.608 44.6774C115.608 45.0688 115.654 45.3794 115.748 45.6134C115.842 45.8473 115.978 46.0175 116.161 46.1239C116.344 46.2345 116.569 46.2898 116.846 46.2898ZM115.952 41.9037L116.552 41.0614H117.275L117.867 41.9037H117.284L116.914 41.474L116.539 41.9037H115.952Z" fill="#3E5BA9"/>
<path d="M120.887 47.0002V42.3589H121.738L124.269 45.8175L123.997 46.3748V42.3589H124.882V47.0002H124.107L121.521 43.5203L121.772 43.0949V47.0002H120.887Z" fill="#3E5BA9"/>
<path d="M128.944 47.081C128.481 47.081 128.081 46.996 127.749 46.83C127.413 46.6641 127.158 46.4004 126.979 46.0473C126.8 45.6942 126.711 45.2347 126.711 44.6732C126.711 44.1201 126.8 43.6649 126.979 43.3076C127.158 42.9502 127.413 42.6865 127.749 42.5163C128.081 42.3461 128.481 42.261 128.94 42.261C129.225 42.261 129.497 42.2908 129.77 42.3461C130.038 42.4014 130.297 42.4823 130.548 42.5886V43.4735C130.284 43.3374 130.033 43.231 129.795 43.1459C129.557 43.0608 129.315 43.0225 129.059 43.0225C128.757 43.0225 128.502 43.0779 128.298 43.1842C128.094 43.2906 127.936 43.465 127.83 43.7075C127.723 43.95 127.672 44.269 127.672 44.6732C127.672 45.0731 127.728 45.3921 127.834 45.6346C127.94 45.8771 128.094 46.0515 128.298 46.1621C128.498 46.2727 128.74 46.3238 129.025 46.3238C129.17 46.3238 129.306 46.3153 129.434 46.294C129.561 46.2727 129.68 46.243 129.791 46.2004V45.2347H128.923V44.469H130.74V46.6258C130.463 46.7747 130.17 46.8896 129.872 46.9662C129.561 47.0428 129.255 47.081 128.944 47.081Z" fill="#3E5BA9"/>
<path d="M136.619 45.4049V47.0002H135.674V42.3589H137.636C138.176 42.3589 138.593 42.4823 138.891 42.729C139.188 42.9757 139.337 43.3501 139.337 43.8479C139.337 44.3456 139.188 44.7327 138.891 45.0007C138.593 45.2688 138.172 45.4049 137.636 45.4049H136.619ZM136.619 44.6391H137.517C137.678 44.6391 137.81 44.6221 137.916 44.5838C138.023 44.5455 138.104 44.4945 138.163 44.4222C138.223 44.3498 138.265 44.269 138.291 44.1839C138.316 44.0989 138.329 44.001 138.329 43.8989C138.329 43.7925 138.316 43.6904 138.291 43.6011C138.265 43.5118 138.223 43.4267 138.163 43.3501C138.104 43.2735 138.023 43.2182 137.916 43.1799C137.81 43.1417 137.678 43.1204 137.517 43.1204H136.619V44.6391Z" fill="#3E5BA9"/>
<path d="M141.171 47.0002V42.3589H142.115V44.2945H144.043V42.3589H144.987V47.0002H144.043V45.0858H142.115V47.0002H141.171Z" fill="#3E5BA9"/>
<path d="M146.591 47.0002L148.373 42.3589H149.394L151.1 47.0002H150.117L148.599 42.678L149.016 42.6354L147.505 47.0002H146.591ZM147.531 45.8644L147.761 45.1412H149.918L150.003 45.8644H147.531ZM148.624 41.9675L148.918 41.172H149.845L149.092 41.9675H148.624Z" fill="#3E5BA9"/>
<path d="M153.738 47.0002V43.1161H152.338V42.3589H156.095V43.1161H154.682V47.0002H153.738Z" fill="#3E5BA9"/>
<path d="M157.205 0.0808105L120.755 0.0935731C115.106 0.0808105 112.14 2.0037 110.439 10.1505H141.715L157.205 0.0808105Z" fill="#3E5BA9"/>
<path d="M144.468 10.1462H154.925L157.205 0.804016L144.468 10.1462Z" fill="#F05223"/>
<path d="M146.884 13.5198H122.521C121.836 13.5198 121.495 13.2646 121.495 12.7456C121.495 12.5967 121.521 12.4393 121.572 12.2733L121.878 11.2141L110.115 11.3502L109.516 13.6389C109.226 14.7025 108.831 16.3489 108.869 16.9912C109.069 20.267 111.426 20.9349 114.029 20.9987H138.393C139.078 20.9987 139.418 21.2582 139.418 21.7729C139.418 21.9218 139.393 22.0792 139.342 22.2452L139.01 23.4916C138.772 24.3255 138.223 24.7381 137.368 24.7381L106.614 24.6956L104.023 34.6674L141.039 34.7142C146.17 34.7142 149.65 31.3874 151.479 24.7381L152.504 20.9987C152.793 19.9522 152.942 19.012 152.942 18.1824C152.938 15.0896 150.917 13.5368 146.884 13.5198Z" fill="#3E5BA9"/>
<path d="M71.6065 10.0739C71.7001 10.0611 104.1 10.0824 104.1 10.0824C104.581 8.32541 104.827 6.77689 104.827 5.48787C104.827 1.85905 102.93 0.038257 99.1354 0.0212402H68.2244C63.0726 0.038257 59.5799 3.38205 57.7421 10.0526L57.7336 10.0824L71.6065 10.0739Z" fill="#3E5BA9"/>
<path d="M90.7418 11.6564L87.4406 23.5384C87.1981 24.3679 86.6493 24.7806 85.79 24.7806H67.7607C67.0928 24.7806 66.7567 24.5253 66.7567 24.0106C66.7567 23.8787 66.7822 23.7213 66.8333 23.5384L70.0665 11.8947L57.1337 12.0436L53.59 24.7806C53.1093 26.5206 52.8668 28.035 52.8668 29.3283C52.8668 32.9231 54.7642 34.7226 58.5589 34.7226H89.4656C94.6174 34.7226 98.1101 31.4086 99.9479 24.7848L103.641 11.5118L90.7418 11.6564Z" fill="#3E5BA9"/>
<path d="M51.6799 10.1462L51.6969 10.0654C52.1649 8.30416 52.3989 6.76839 52.3989 5.4581C52.3989 1.83354 50.5653 0.0127443 46.8982 -0.00427246L8.68284 0.0765571L6.67061 10.1462H51.6799Z" fill="#3E5BA9"/>
<path d="M39.4576 12.3116L39.6065 13.7197H5.66658L0 34.8758L37.4879 34.9013C42.4908 34.9013 45.8814 31.5746 47.6682 24.9253L48.3446 22.4068C48.4467 22.0239 48.4935 21.6325 48.4935 21.2326C48.4935 20.0712 48.0596 18.7992 47.1917 17.4166C49.3443 15.5703 50.6163 13.9112 51.0162 12.4265L51.0843 12.1712L39.4576 12.3116ZM35.8373 22.4281L35.4884 23.6745C35.2715 24.5041 34.7482 24.921 33.9144 24.921L15.1577 24.8955L16.1574 21.1773H34.9141C35.582 21.1773 35.9139 21.4368 35.9139 21.9516C35.9139 22.1047 35.8883 22.2621 35.8373 22.4281Z" fill="#3E5BA9"/>
</svg>
