<svg width="37" height="24" viewBox="0 0 37 24" fill="none" xmlns="http://www.w3.org/2000/svg">
<path d="M35.9759 8.58719L36.4406 6.8422C36.7615 5.64443 36.9219 4.60101 36.9219 3.71193C36.9219 1.24879 35.6589 0.0114802 33.1341 0H7.31228L5.45365 6.87792L26.9729 6.84348C27.4311 6.84348 27.6609 7.02078 27.6609 7.37412C27.6609 7.47744 27.6442 7.58586 27.6096 7.69939L27.3862 8.5553C27.2258 9.12548 26.8587 9.42269 26.2849 9.44438H4.76437L0.857147 23.9834L26.6623 24C30.1048 24 32.441 21.7193 33.6693 17.1565L34.134 15.4294C34.2033 15.1666 34.238 14.8988 34.238 14.6258C34.238 13.8273 33.9389 12.9548 33.3433 12.0083C34.822 10.7429 35.7 9.60255 35.9759 8.58719ZM25.5263 15.4473L25.285 16.3032C25.1361 16.8733 24.7741 17.1591 24.2004 17.1591L11.2888 17.1425L11.9781 14.5913H24.8896C25.3479 14.5913 25.5776 14.7686 25.5776 15.122C25.5776 15.2253 25.561 15.3337 25.5263 15.4473Z" fill="white"/>
</svg>
