<svg width="24" height="17" viewBox="0 0 24 17" fill="none" xmlns="http://www.w3.org/2000/svg">
    <path
        d="M16.1797 8.60938C18.1797 8.60938 19.7578 6.89844 19.7578 4.75C19.7578 2.67188 18.1484 0.953125 16.1797 0.953125C14.2188 0.953125 12.6016 2.67969 12.6094 4.75781C12.6172 6.89844 14.1875 8.60938 16.1797 8.60938ZM6.92969 8.78125C8.67969 8.78125 10.0703 7.27344 10.0703 5.375C10.0703 3.54688 8.64844 2.03906 6.92969 2.03906C5.21094 2.03906 3.78125 3.5625 3.78906 5.38281C3.79688 7.28125 5.1875 8.78125 6.92969 8.78125ZM16.1797 6.64062C15.3125 6.64062 14.5938 5.83594 14.5938 4.75C14.5859 3.74219 15.3359 2.92188 16.1797 2.92188C17.0391 2.92188 17.7656 3.73438 17.7656 4.75C17.7656 5.82812 17.0547 6.64062 16.1797 6.64062ZM6.92969 6.84375C6.28125 6.84375 5.72656 6.21875 5.72656 5.38281C5.71875 4.60938 6.28906 3.96875 6.92969 3.96875C7.57031 3.96875 8.14062 4.60938 8.14062 5.375C8.14062 6.21875 7.59375 6.84375 6.92969 6.84375ZM11.4375 16.0156H20.9219C22.4375 16.0156 23.2031 15.4688 23.2031 14.3438C23.2031 11.8672 20.1953 9.33594 16.1797 9.33594C12.1641 9.33594 9.15625 11.8672 9.15625 14.3438C9.15625 15.4688 9.92188 16.0156 11.4375 16.0156ZM2.78906 16.0234H8.64844C8.04688 15.6406 7.75781 14.75 7.82812 14.0859H3.10938C3 14.0859 2.96875 14.0156 2.96875 13.9375C2.96875 12.6406 4.70312 11.2656 6.92969 11.2656C7.44531 11.2656 8.30469 11.4219 8.71094 11.5859C9.00781 10.9844 9.46875 10.4766 10.1562 10.0703C9.23438 9.63281 7.90625 9.33594 6.92969 9.33594C3.52344 9.33594 0.789062 11.6562 0.789062 14.2422C0.789062 15.3828 1.45312 16.0234 2.78906 16.0234ZM11.6172 14.0469C11.4922 14.0469 11.4531 13.9766 11.4531 13.8984C11.4531 13 13.2188 11.3047 16.1797 11.3047C19.1484 11.3047 20.9062 13 20.9062 13.8984C20.9062 13.9766 20.875 14.0469 20.75 14.0469H11.6172Z"
        fill="white" />
</svg>